<svg xmlns="http://www.w3.org/2000/svg" width="492" height="479" viewBox="0 0 492 479">
  <path fill="rgb(255,255,255)" fill-rule="evenodd" d="M444.97269361 186.6066318l31.11268964 31.11270711c5.8539412 5.8539445 5.85393853 15.35926223-.00000596 21.21320344L241.32586 473.69192777l-52.32588712-52.3259165 234.75951729-234.75938543c5.85394449-5.8539412 15.35926223-5.85393853 21.21320343.00000596z"/>
  <path fill="rgb(255,255,255)" fill-rule="evenodd" d="M5.6068123 217.71902834l31.11275954-31.11263721c5.85395436-5.85393134 15.3592721-5.85391266 21.21320344.0000417l234.75898986 234.75991284-52.32600467 52.32579895L5.6067706 238.93223177c-5.85393134-5.85395435-5.85391266-15.3592721.0000417-21.21320343z"/>
  <path fill="rgb(255,255,255)" fill-rule="evenodd" d="M444.97269361 5.6066318l31.11268964 31.11270711c5.8539412 5.8539445 5.85393853 15.35926223-.00000596 21.21320344L241.32586 292.69192777l-52.32588712-52.3259165L423.75949018 5.60662584c5.85394449-5.8539412 15.35926223-5.85393853 21.21320343.00000596z"/>
  <path fill="rgb(255,255,255)" fill-rule="evenodd" d="M5.6068123 36.71902834L36.71957185 5.60639113c5.85395436-5.85393134 15.3592721-5.85391266 21.21320344.0000417l234.75898986 234.75991284-52.32600467 52.32579895L5.6067706 57.93223177c-5.85393134-5.85395435-5.85391266-15.3592721.0000417-21.21320343z"/>
</svg>
