<svg xmlns="http://www.w3.org/2000/svg" width="48" height="48" viewBox="0 0 48 48">
  <defs>
    <rect id="rect-1" width="48" height="48" x="0" y="0"/>
  </defs>
  <g>
    <path fill="rgb(0,0,0)" fill-rule="evenodd" d="M24.04323968.17994915c-13.228562 0-23.95557026 10.90790392-23.95557026 24.36454943 0 10.7650743 6.864 19.89809865 16.38228098 23.11983392 1.19722312.22554167 1.63676032-.52855013 1.63676032-1.17209028 0-.58100168-.02221488-2.5003248-.03252888-4.53625163-6.6644628 1.4738884-8.07074384-2.87474815-8.07074384-2.87474815C8.91371904 36.264998 7.3436033 35.5161513 7.3436033 35.5161513c-2.1734876-1.51221835.16383472-1.48115088.16383472-1.48115088 2.40555374.17147617 3.67219838 2.51081507 3.67219838 2.51081507 2.13659504 3.72486664 5.60409912 2.64799607 6.97110744 2.02543656.21500824-1.5743533.83583464-2.65001345 1.5209256-3.25804784-5.32085952-.61610392-10.91424792-2.70528927-10.91424792-12.0412608 0-2.66010028.9358016-4.83361155 2.46823136-6.53990066-.24872728-.61408654-1.06869424-3.09181684.23206616-6.44790875 0 0 2.01163632-.65483731 6.5894876 2.49750053 1.910876-.53984746 3.96019832-.81057811 5.99603304-.81985806 2.03583472.00927995 4.08674376.2800106 6.00119008.81985806C34.61672728 9.62929668 36.6255868 10.284134 36.6255868 10.284134c1.30393384 3.3560919.48357024 5.83382221.23484296 6.44790875 1.536 1.70628911 2.46545456 3.87980038 2.46545456 6.53990066 0 9.3581625-5.6040992 11.4187013-10.93844632 12.02189402.85923968.75610926 1.62485952 2.23887401 1.62485952 4.51204329 0 3.25966177-.02776856 5.8834494-.02776856 6.68636151 0 .6483818.43120656 1.40812223 1.6454876 1.16886249C41.14314048 44.4357382 47.9984132 35.30594164 47.9984132 24.54449858c0-13.4566455-10.72542144-24.36454943-23.95517352-24.36454943"/>
    <path fill="rgb(0,0,0)" fill-rule="evenodd" d="M9.16085952 35.16230514c-.05276032.12144545-.24.15735466-.41057856.07423908-.173752-.07948426-.2713388-.24450484-.21500824-.36595038.05157024-.12467332.23920664-.15896851.412562-.07625646.17414872.0798877.27332232.24652223.2130248.36796776"/>
    <path fill="rgb(0,0,0)" fill-rule="evenodd" d="M10.13117352 36.26298061c-.11424792.10772738-.33758672.05769673-.48912392-.11256911-.15669424-.16986232-.1860496-.39701785-.07021488-.50635908.11781816-.10772746.3344132-.05729329.49150416.11256903.15669416.1718797.1872396.39742137.06783464.50635916"/>
    <path fill="rgb(0,0,0)" fill-rule="evenodd" d="M11.07570248 37.66626118c-.14677688.1036927-.38677688.0064556-.53514048-.21020965-.14677688-.21666525-.14677688-.4765021.00317352-.58059824.14876032-.10409614.38519008-.01049036.5355372.20456103.14638016.21989296.14638016.48013334-.00357024.58624686"/>
    <path fill="rgb(0,0,0)" fill-rule="evenodd" d="M12.36971904 39.02193185c-.13130584.14726782-.4109752.10772738-.61566944-.09320233-.20945456-.19649158-.26776864-.47529169-.13606616-.62255951.13289256-.14767127.4141488-.10611352.62042976.09320233.20786776.19608813.27133888.47690563.13130584.62255951"/>
    <path fill="rgb(0,0,0)" fill-rule="evenodd" d="M14.15484296 39.8091085c-.05791736.19084296-.32727272.2775897-.59861152.19649158-.27094216-.08351902-.44826448-.3070433-.39352072-.49990356.05633064-.19205337.32687608-.28243144.6001984-.19568461.27054544.0831155.4482644.30502592.39193384.4990966"/>
    <path fill="rgb(0,0,0)" fill-rule="evenodd" d="M16.11530576 39.95516591c.00674384.20092971-.2233388.36756423-.50816528.37079203-.2864132.00685904-.51808264-.15574072-.52125616-.35344271 0-.2029471.2249256-.36796776.5113388-.37280941.28482648-.00564863.51808264.15574072.51808264.3554601"/>
    <path fill="rgb(0,0,0)" fill-rule="evenodd" d="M17.93970248 39.63924618c.03411568.19608814-.16383472.39742137-.44667768.45067981-.27808264.05204811-.5355372-.06899398-.57084296-.2634681-.0345124-.20092978.16700824-.40226302.44469416-.45431112.28323968-.05003065.53672728.06778356.57282648.26709941"/>
  </g>
</svg>
