<svg xmlns="http://www.w3.org/2000/svg" width="48" height="48" viewBox="0 0 48 48">
  <defs>
    <rect id="rect-1" width="48" height="48" x="0" y="0"/>
  </defs>
  <path fill="rgb(0,0,0)" fill-rule="evenodd" d="M24 0C10.74516582 0 0 10.74516582 0 24c0 13.25483322 10.74516582 24 24 24 13.25483322 0 24-10.74516678 24-24C48 10.74516582 37.25483322 0 24 0zm-6.68123627 14.82269764C17.28346253 13.22040367 16.13765335 12 14.2770319 12c-1.8606224 0-3.0770321 1.22040367-3.0770321 2.82269764 0 1.5691061 1.18045712 2.82464886 3.00643064 2.82464886h.0347576c1.89646531 0 3.0775757-1.25554276 3.0775757-2.82464886zm12.99437332 4.67141628c3.57906342 0 6.262249 2.33614159 6.262249 7.35560799l-.00021744 9.3698368h-5.43870926v-8.74282264c0-2.1960106-.78704262-3.6945076-2.75595665-3.6945076-1.50261879 0-2.39762688 1.01020622-2.79071617 1.98592186-.14381027.34967804-.17910957.83688354-.17910957 1.32528305v9.12656021h-5.4395771s.0716877-14.80828857 0-16.34171104h5.4395771v2.31466675c.72187233-1.11270142 2.01474952-2.69883538 4.9024601-2.69883538zm-18.79152011.38373375h5.43892383v16.34171105h-5.43892383V19.87784767z"/>
</svg>
